<svg width="526" height="242" viewBox="0 0 526 242" fill="none" xmlns="http://www.w3.org/2000/svg">
<g clip-path="url(#clip0_385_1065)">
<mask id="mask0_385_1065" style="mask-type:luminance" maskUnits="userSpaceOnUse" x="0" y="0" width="526" height="242">
<path d="M526 0H0V242H526V0Z" fill="white"/>
</mask>
<g mask="url(#mask0_385_1065)">
<mask id="mask1_385_1065" style="mask-type:alpha" maskUnits="userSpaceOnUse" x="0" y="0" width="526" height="242">
<path d="M526 0H0V242H526V0Z" fill="#C4C4C4"/>
</mask>
<g mask="url(#mask1_385_1065)">
<mask id="mask2_385_1065" style="mask-type:alpha" maskUnits="userSpaceOnUse" x="269" y="76" width="167" height="166">
<path fill-rule="evenodd" clip-rule="evenodd" d="M269.471 76.0564H435.018V241.998H269.471V76.0564Z" fill="white"/>
</mask>
<g mask="url(#mask2_385_1065)">
<path fill-rule="evenodd" clip-rule="evenodd" d="M421.328 163.287C419.139 199.487 389.093 228.159 352.398 228.159C314.215 228.159 283.311 197.214 283.311 159.021C283.311 128.347 303.25 102.339 330.884 93.291C331.388 89.9254 331.648 86.4812 331.648 82.9691C331.648 81.528 331.596 80.1129 331.528 78.7033C295.825 87.964 269.471 120.413 269.471 159.021C269.471 204.836 306.578 241.998 352.398 241.998C395.935 241.998 431.659 208.368 435.018 165.628C430.333 165.223 425.758 164.437 421.328 163.287ZM352.401 89.8794C387.022 89.8794 415.732 115.409 420.718 148.711C425.272 150.188 430.035 151.219 434.963 151.744C431.272 109.327 395.705 76.0564 352.401 76.0564C349.973 76.0564 347.581 76.1653 345.231 76.3631C345.382 78.5429 345.476 80.7439 345.476 82.9703C345.476 85.426 345.351 87.8612 345.164 90.2545C347.534 90.0047 349.942 89.8794 352.401 89.8794Z" fill="#00A651"/>
</g>
<mask id="mask3_385_1065" style="mask-type:alpha" maskUnits="userSpaceOnUse" x="89" y="76" width="167" height="166">
<path fill-rule="evenodd" clip-rule="evenodd" d="M89.8214 76.0593H255.384V241.999H89.8214V76.0593Z" fill="white"/>
</mask>
<g mask="url(#mask3_385_1065)">
<path fill-rule="evenodd" clip-rule="evenodd" d="M255.384 165.626C252.025 208.371 216.317 242.001 172.748 242.001C126.938 242.001 89.8214 204.838 89.8214 159.019C89.8214 120.416 116.181 87.9663 151.889 78.7062C151.952 80.1104 151.998 81.5309 151.998 82.9666C151.998 86.4841 151.733 89.9277 151.234 93.294C123.606 102.341 103.672 128.349 103.672 159.019C103.672 197.211 134.566 228.162 172.748 228.162C209.459 228.162 239.505 199.49 241.695 163.29C246.108 164.435 250.704 165.225 255.384 165.626ZM165.514 90.2569C165.712 87.8641 165.837 85.429 165.837 82.9684C165.837 80.7469 165.743 78.5459 165.592 76.3661C167.942 76.1682 170.334 76.0593 172.752 76.0593C216.061 76.0593 251.67 109.33 255.361 151.747C250.401 151.216 245.623 150.191 241.079 148.714C236.093 115.412 207.378 89.8775 172.752 89.8775C170.302 89.8775 167.885 90.0076 165.514 90.2569Z" fill="#FCB131"/>
</g>
<mask id="mask4_385_1065" style="mask-type:alpha" maskUnits="userSpaceOnUse" x="359" y="0" width="167" height="166">
<path fill-rule="evenodd" clip-rule="evenodd" d="M359.523 0H525.111V165.942H359.523V0Z" fill="white"/>
</mask>
<g mask="url(#mask4_385_1065)">
<path fill-rule="evenodd" clip-rule="evenodd" d="M525.111 82.9715C525.111 128.796 487.999 165.942 442.195 165.942C398.839 165.942 363.282 132.677 359.591 90.2551C364.551 90.77 369.297 91.8106 373.867 93.2934C378.838 126.585 407.527 152.119 442.195 152.119C480.346 152.119 511.281 121.153 511.281 82.9715C511.281 44.7945 480.346 13.8285 442.195 13.8285C405.452 13.8285 375.427 42.5054 373.239 78.7105C368.793 77.5658 364.239 76.7751 359.523 76.3637C362.918 33.6245 398.621 0 442.195 0C487.999 0 525.111 37.1519 525.111 82.9715Z" fill="#EE334E"/>
</g>
<mask id="mask5_385_1065" style="mask-type:alpha" maskUnits="userSpaceOnUse" x="179" y="0" width="167" height="166">
<path fill-rule="evenodd" clip-rule="evenodd" d="M179.897 0H345.47V165.942H179.897V0Z" fill="white"/>
</mask>
<g mask="url(#mask5_385_1065)">
<path fill-rule="evenodd" clip-rule="evenodd" d="M262.54 152.121C227.909 152.121 199.194 126.586 194.213 93.2946C189.653 91.8118 184.901 90.7712 179.941 90.2563C183.638 132.678 219.194 165.944 262.54 165.944C264.973 165.944 267.37 165.845 269.73 165.632C269.57 163.467 269.47 161.257 269.47 159.024C269.47 156.574 269.596 154.139 269.798 151.752C267.412 151.996 264.994 152.121 262.54 152.121ZM262.538 0C218.969 0 183.272 33.6245 179.897 76.3637C184.592 76.7751 189.136 77.5658 193.597 78.7105C195.771 42.5054 225.816 13.8285 262.538 13.8285C300.72 13.8285 331.645 44.7945 331.645 82.9715C331.645 113.641 311.696 139.659 284.058 148.717C283.564 152.067 283.308 155.516 283.308 159.023C283.308 160.464 283.319 161.89 283.418 163.29C319.115 154.034 345.47 121.585 345.47 82.9715C345.47 37.1519 308.358 0 262.538 0Z" fill="black"/>
</g>
<mask id="mask6_385_1065" style="mask-type:alpha" maskUnits="userSpaceOnUse" x="0" y="0" width="166" height="166">
<path fill-rule="evenodd" clip-rule="evenodd" d="M0 0H165.824V165.942H0V0Z" fill="white"/>
</mask>
<g mask="url(#mask6_385_1065)">
<path fill-rule="evenodd" clip-rule="evenodd" d="M165.821 82.9715C165.821 37.1519 128.71 0 82.8946 0C37.1213 0 -0.00588989 37.1519 -0.00588989 82.9715C-0.00588989 128.796 37.1213 165.942 82.8946 165.942C85.3226 165.942 87.6987 165.844 90.0693 165.636C89.9085 163.466 89.8094 161.255 89.8094 159.023C89.8094 156.573 89.9394 154.138 90.1316 151.75C87.7507 151.994 85.3432 152.119 82.8946 152.119C44.7381 152.119 13.8031 121.153 13.8031 82.9715C13.8031 44.7945 44.7381 13.8285 82.8946 13.8285C121.072 13.8285 151.986 44.7945 151.986 82.9715C151.986 113.646 132.037 139.659 104.404 148.717C103.915 152.067 103.66 155.516 103.66 159.023C103.66 160.464 103.67 161.89 103.764 163.289C139.467 154.034 165.821 121.585 165.821 82.9715Z" fill="#0081C8"/>
</g>
</g>
</g>
</g>
<defs>
<clipPath id="clip0_385_1065">
<rect width="526" height="242" fill="white"/>
</clipPath>
</defs>
</svg>
