<svg width="191" height="191" viewBox="0 0 191 191" fill="none" xmlns="http://www.w3.org/2000/svg">
<path d="M9.57963 120.302C8.15754 119.706 6.62188 119.637 5.07532 119.637H0V136.253H2.96709C2.96709 135.313 2.89552 134.335 3.35917 133.457C4.10756 132.043 5.85016 131.363 7.37182 130.721C9.00395 130.035 10.8135 129.365 11.8964 128.035C12.8563 126.856 13.1177 125.294 12.8377 123.885C12.5156 122.274 11.2491 121.001 9.57963 120.302ZM9.43338 126.654C8.72856 127.572 7.53674 128.087 6.43206 128.567C5.22624 129.09 3.98464 129.61 2.96709 130.395V122.04H5.78014C7.3547 122.04 9.08952 122.461 9.71188 123.868C10.0915 124.726 10.0262 125.878 9.43338 126.654Z" fill="white"/>
<path d="M31.3974 120.097C28.8271 118.833 25.1427 119.207 23.1559 121.154C22.1897 122.101 21.6996 123.319 21.6124 124.571C21.5906 124.888 21.5984 136.253 21.5984 136.253H24.5359V130.749C26.2661 130.558 28.2032 130.704 29.6548 131.622C30.9556 132.443 31.5266 133.737 31.5297 135.104C31.5297 135.487 31.5297 136.253 31.5297 136.253H34.4688V125.111C34.4657 123.067 33.5026 121.133 31.3974 120.097ZM31.3679 130.016C29.6222 128.476 26.9445 127.937 24.5359 128.271V125.556C24.5359 125.057 24.5219 124.557 24.6698 124.069C24.9514 123.132 25.7698 122.359 26.8278 122.05C27.9309 121.727 29.2083 121.873 30.1449 122.481C31.0847 123.091 31.5188 124.029 31.5297 125.031C31.5375 125.811 31.5297 126.592 31.5297 127.371V130.177C31.4752 130.125 31.4254 130.066 31.3679 130.016Z" fill="white"/>
<path d="M54.6699 130.08C54.3307 129.923 53.9681 129.793 53.5885 129.689C54.5314 129.238 55.4649 128.682 56.1246 127.93C56.7361 127.233 57.0846 126.429 57.1951 125.56C57.4238 123.738 56.7392 122.002 55.0153 120.89C52.7188 119.407 49.8139 119.637 47.1176 119.637H44.3123V136.253H47.2794C47.2794 135.761 47.2591 135.264 47.2856 134.771C47.3447 133.674 47.9017 132.614 49.0049 132.026C50.0831 131.454 51.555 131.386 52.7048 131.834C53.8639 132.286 54.6154 133.255 54.8037 134.333C54.9141 134.961 54.8612 135.62 54.8612 136.253H57.8579C57.8579 135.341 57.9154 134.413 57.6836 133.517C57.2993 132.04 56.204 130.793 54.6699 130.08ZM50.1889 122.04C52.0777 122.04 53.9884 122.842 54.1938 124.64C54.2933 125.505 54.0755 126.362 53.4143 127.026C52.6908 127.752 51.6125 128.19 50.6354 128.599C49.4498 129.096 48.2596 129.613 47.2794 130.388V122.04H50.1889Z" fill="white"/>
<path d="M67.0848 121.963C68.0526 121.739 69.0546 121.635 70.0519 121.58V119.637H67.0848V121.963Z" fill="white"/>
<path d="M67.0848 123.42V136.254H70.0519V123.037C69.0546 123.074 68.051 123.201 67.0848 123.42Z" fill="white"/>
<path d="M89.8579 128.278C88.7937 127.551 87.5194 127.133 86.2607 126.732C85.0938 126.362 83.737 125.971 82.8937 125.133C82.1142 124.36 82.2885 123.135 83.0913 122.433C83.9222 121.707 85.2556 121.545 86.3494 121.847C87.5848 122.187 88.33 123.154 88.33 124.264H91.2676C91.2676 123.046 90.8195 121.875 89.8564 120.978C88.9228 120.109 87.6361 119.592 86.2903 119.439C84.8915 119.279 83.4414 119.438 82.2045 120.051C81.0438 120.625 80.0651 121.537 79.6497 122.656C79.253 123.726 79.3401 125.06 79.9718 126.051C80.6766 127.154 81.9493 127.817 83.2485 128.301C84.6612 128.825 86.2903 129.147 87.5536 129.93C88.0624 130.246 88.4856 130.65 88.6365 131.191C88.7844 131.718 88.7299 132.314 88.4483 132.801C87.7621 133.988 86.0538 134.351 84.655 134.117C83.0867 133.856 81.954 132.716 81.954 131.319H79.0445C79.0445 132.671 79.5501 133.946 80.6626 134.909C81.7642 135.864 83.2936 136.38 84.8293 136.487C86.4396 136.599 88.1013 136.315 89.4347 135.495C90.6608 134.738 91.4885 133.566 91.6487 132.26C91.8339 130.736 91.2676 129.241 89.8579 128.278Z" fill="white"/>
<path d="M117.509 128.635C118.166 127.926 118.805 127.179 119.239 126.345C119.667 125.522 119.821 124.611 119.706 123.714C119.486 122.006 118.128 120.589 116.358 119.885C114.548 119.166 112.269 119.2 110.498 119.988C108.71 120.782 107.428 122.299 107.321 124.067C107.211 125.874 108.177 127.471 109.81 128.558L111.485 126.693C110.884 126.194 110.408 125.589 110.271 124.863C110.139 124.165 110.276 123.459 110.764 122.884C111.723 121.757 113.647 121.417 115.071 122.04C115.782 122.35 116.379 122.888 116.635 123.55C116.901 124.239 116.775 125.031 116.437 125.683C116.095 126.343 115.55 126.906 115.035 127.466C113.051 129.625 111.068 131.783 109.085 133.94C108.377 134.712 107.668 135.483 106.96 136.253H120.389V133.876H112.686L117.509 128.635Z" fill="white"/>
<path d="M145.425 121.861C142.465 119.345 137.83 118.668 134.074 120.176C130.286 121.697 128.005 125.196 128.398 128.802C128.784 132.338 131.821 135.368 135.769 136.239C139.774 137.121 144.167 135.822 146.565 132.865C148.975 129.893 148.905 125.72 146.389 122.814C146.095 122.476 145.773 122.157 145.425 121.861ZM144.763 130.336C143.604 132.703 140.869 134.224 137.905 134.069C135.033 133.92 132.539 132.129 131.706 129.748C130.852 127.304 131.867 124.574 134.197 123.025C136.539 121.471 139.855 121.416 142.274 122.873C144.978 124.503 146.053 127.696 144.763 130.336Z" fill="white"/>
<path d="M167.228 128.635C167.885 127.926 168.524 127.179 168.959 126.345C169.386 125.522 169.54 124.611 169.425 123.714C169.204 122.006 167.848 120.589 166.077 119.885C164.268 119.166 161.988 119.2 160.218 119.988C158.43 120.782 157.148 122.299 157.04 124.067C156.93 125.874 157.895 127.471 159.53 128.558L161.204 126.693C160.603 126.194 160.127 125.589 159.99 124.863C159.858 124.165 159.994 123.459 160.484 122.884C161.442 121.757 163.367 121.417 164.79 122.04C165.501 122.35 166.099 122.888 166.354 123.55C166.62 124.239 166.494 125.031 166.156 125.683C165.814 126.343 165.27 126.906 164.753 127.466C162.771 129.625 160.787 131.783 158.805 133.94C158.095 134.712 157.387 135.483 156.679 136.253H170.108V133.876H162.405L167.228 128.635Z" fill="white"/>
<path d="M188.15 124.085V129.717C186.737 128.841 184.971 128.575 183.493 127.805C182.215 127.14 181.809 125.977 181.803 124.747C181.795 123.542 181.803 119.637 181.803 119.637H178.834C178.834 119.637 178.831 123.096 178.834 124.825C178.838 126.596 179.339 128.327 181.005 129.467C182.032 130.169 183.267 130.602 184.492 130.975C185.584 131.308 186.745 131.725 187.495 132.527C188.084 133.159 188.15 133.916 188.15 134.696V136.254H191V124.085H188.15Z" fill="white"/>
<path d="M94.1942 177.356C94.1942 184.89 87.1694 191 78.5093 191C69.8476 191 62.829 184.89 62.829 177.356C62.829 169.821 69.8476 163.713 78.5093 163.713C87.1694 163.713 94.1942 169.821 94.1942 177.356ZM78.5093 165.987C71.293 165.987 65.4429 171.078 65.4429 177.356C65.4429 183.634 71.293 188.725 78.5093 188.725C85.7286 188.725 91.5803 183.634 91.5803 177.356C91.5803 171.078 85.7286 165.987 78.5093 165.987Z" fill="white"/>
<path d="M128.174 177.356C128.174 184.89 121.151 191 112.491 191C103.829 191 96.8072 184.89 96.8072 177.356C96.8072 169.821 103.829 163.713 112.491 163.713C121.151 163.713 128.174 169.821 128.174 177.356ZM112.491 165.987C105.271 165.987 99.4226 171.078 99.4226 177.356C99.4226 183.634 105.271 188.725 112.491 188.725C119.708 188.725 125.56 183.634 125.56 177.356C125.56 171.078 119.708 165.987 112.491 165.987Z" fill="white"/>
<path d="M61.524 151.211C52.8608 151.211 45.8406 157.315 45.8406 164.851C45.8406 172.385 52.8608 178.493 61.524 178.493C61.9815 178.493 62.4311 178.47 62.8808 178.438C62.8497 178.082 62.8279 177.72 62.8279 177.356C62.8279 176.949 62.8543 176.554 62.8917 176.158C62.4405 176.196 61.9861 176.217 61.524 176.217C54.3047 176.217 48.453 171.13 48.453 164.851C48.453 158.57 54.3047 153.479 61.524 153.479C68.7403 153.479 74.592 158.57 74.592 164.851C74.592 169.893 70.8174 174.165 65.5896 175.654C65.4947 176.21 65.4418 176.78 65.4418 177.356C65.4418 177.593 65.4527 177.822 65.4682 178.056C72.2192 176.531 77.2028 171.195 77.2028 164.851C77.2028 157.315 70.1841 151.211 61.524 151.211Z" fill="white"/>
<path d="M129.478 151.208C121.238 151.208 114.487 156.736 113.851 163.764C114.735 163.83 115.6 163.959 116.437 164.151C116.852 158.198 122.533 153.479 129.478 153.479C136.699 153.479 142.549 158.57 142.549 164.848C142.549 171.13 136.699 176.217 129.478 176.217C122.93 176.217 117.499 172.022 116.558 166.552C115.696 166.307 114.791 166.139 113.86 166.053C114.559 173.021 121.285 178.493 129.478 178.493C138.138 178.493 145.16 172.385 145.16 164.848C145.16 157.315 138.138 151.208 129.478 151.208Z" fill="white"/>
<path d="M95.5013 151.208C87.2582 151.208 80.5056 156.743 79.8708 163.764C80.7576 163.833 81.6196 163.964 82.4598 164.151C82.8752 158.198 88.5527 153.479 95.5013 153.479C102.719 153.479 108.569 158.57 108.569 164.848C108.569 169.893 104.795 174.165 99.5699 175.654C99.4766 176.213 99.4221 176.78 99.4221 177.356C99.4221 177.592 99.4299 177.822 99.4486 178.056C106.196 176.531 111.183 171.195 111.183 164.848C111.183 157.315 104.163 151.208 95.5013 151.208Z" fill="white"/>
<path d="M96.8079 177.356C96.8079 176.949 96.8313 176.553 96.8717 176.158C96.419 176.196 95.9631 176.216 95.501 176.216C88.9476 176.216 83.5222 172.022 82.5746 166.553C81.7127 166.307 80.8134 166.14 79.8829 166.055C80.5815 173.021 87.3061 178.493 95.501 178.493C95.9584 178.493 96.4112 178.47 96.8577 178.438C96.8235 178.082 96.8079 177.72 96.8079 177.356Z" fill="white"/>
<path d="M102.231 91.1791C100.591 90.6485 97.832 90.5998 95.4997 92.2511C93.1675 90.5998 90.4089 90.6485 88.769 91.1791C87.3982 91.6231 86.3231 91.9195 84.3035 91.9046C86.3044 95.5335 90.5676 98.0363 95.4997 98.0363C100.432 98.0363 104.695 95.5335 106.696 91.9046C104.676 91.9195 103.601 91.6231 102.231 91.1791Z" fill="white"/>
<path d="M95.5013 3.42262e-05C61.7462 3.42262e-05 34.3796 23.8066 34.3796 53.1736C34.3796 78.3459 54.4895 99.4345 81.4952 104.943C60.0347 94.9555 51.2844 72.0531 61.6326 52.869C63.3052 60.4449 68.9827 67.1952 77.4654 70.6982C66.4015 48.1857 74.5481 21.7207 97.3808 7.08461C92.889 20.4646 99.7878 32.7076 114.586 41.9512C131.512 52.5225 132.228 74.0943 117.29 85.7553C123.224 84.5533 128.745 81.7109 132.868 77.3591C130.324 88.7616 122.106 99.0785 109.504 104.943C136.512 99.4345 156.62 78.3459 156.62 53.1736C156.62 23.8066 129.256 3.42262e-05 95.5013 3.42262e-05Z" fill="white"/>
<path d="M140.075 101.469H141.229V104.946H141.785V101.469H142.939V101.015H140.075V101.469ZM148.049 101.015C147.187 101.015 146.499 101.341 146.165 101.88C145.832 101.341 145.144 101.015 144.281 101.015H143.982V104.946H144.539V101.5H144.559C145.367 101.5 145.888 101.995 145.888 102.757V103.736H146.443V102.757C146.443 101.995 146.964 101.5 147.77 101.5H147.791V104.946H148.348V101.015H148.049Z" fill="white"/>
</svg>
