<?xml version="1.0" encoding="UTF-8"?>
<svg id="Layer_1" data-name="Layer 1" xmlns="http://www.w3.org/2000/svg" xmlns:xlink="http://www.w3.org/1999/xlink" version="1.1" viewBox="0 0 720 720">
  <defs>
    <style>
      .cls-1 {
        clip-path: url(#clippath);
      }

      .cls-2 {
        fill: none;
      }

      .cls-2, .cls-3 {
        stroke-width: 0px;
      }

      .cls-3 {
        fill: #000;
      }
    </style>
    <clipPath id="clippath">
      <rect class="cls-2" width="720" height="720"/>
    </clipPath>
  </defs>
  <g class="cls-1">
    <path class="cls-3" d="M315,99.6c-1.5-26.6-10.8-51.7-26.6-72.8,17.2-15.2,39.3-25,63.6-26.8v99.6h-37ZM431.6,26.8c-17.2-15.2-39.3-25-63.6-26.8v99.6h37c1.6-26.5,10.8-51.7,26.6-72.8ZM298.9,115.6h-46.6c1.7,23.2,10.7,44.4,24.8,61.2,12.8-17.9,20.4-38.9,21.8-61.2ZM298.9,99.6c-1.5-22.2-9-43.3-21.8-61.2-14.1,16.8-23.1,38-24.8,61.2h46.6ZM405,115.6h-37v99.6c24.3-1.8,46.4-11.6,63.6-26.8-15.8-21-25-46.2-26.6-72.8ZM421.1,99.6h46.6c-1.7-23.2-10.7-44.3-24.8-61.1-12.8,17.9-20.4,38.9-21.8,61.1ZM421.1,115.6c1.5,22.2,9,43.3,21.8,61.2,14.1-16.8,23.1-38,24.8-61.2,0,0-46.6,0-46.6,0ZM352,115.6h-37c-1.5,26.6-10.8,51.7-26.6,72.8,17.2,15.2,39.3,25,63.6,26.8v-99.6ZM368,620.4v99.6c24.3-1.8,46.4-11.6,63.6-26.8-15.8-21.1-25-46.2-26.6-72.8h-37ZM288.4,693.2c17.2,15.2,39.3,25,63.6,26.8v-99.6h-37c-1.6,26.5-10.8,51.7-26.6,72.8ZM421.1,604.4h46.6c-1.7-23.2-10.7-44.4-24.8-61.2-12.8,17.9-20.4,38.9-21.8,61.2ZM421.1,620.4c1.5,22.2,9,43.3,21.8,61.2,14.1-16.8,23.1-38,24.8-61.2h-46.6ZM315,604.4h37v-99.6c-24.3,1.8-46.4,11.6-63.6,26.8,15.8,21,25,46.2,26.6,72.8ZM298.9,620.4h-46.6c1.7,23.2,10.7,44.4,24.8,61.2,12.8-18,20.4-39,21.8-61.2ZM298.9,604.4c-1.5-22.2-9-43.3-21.8-61.2-14.1,16.8-23.1,38-24.8,61.2h46.6ZM368,604.4h37c1.5-26.6,10.8-51.7,26.6-72.8-17.2-15.2-39.3-25-63.6-26.8v99.6ZM673.9,480.1l-91.2,91.2,71,71-11.3,11.3-282.4-282.3-91.2,91.2h0l-191.3,191.2-11.3-11.3,142.4-142.4c-55.1,18.8-118.7,6.3-162.5-37.5-61.4-61.4-61.4-161.3,0-222.6l91.2-91.2-71-71,11.3-11.3,282.4,282.3L642.5,66.3l11.3,11.3-142.4,142.4c55.1-18.8,118.7-6.3,162.5,37.5,61.4,61.4,61.4,161.2,0,222.6ZM199.3,210.7l-100.2,100.3,98.6,98.6,100.3-100.3-98.7-98.6ZM106.9,332.9c-18.1,19-17.8,49.2.9,67.9,18.7,18.7,48.9,18.9,67.9.9l-68.8-68.8ZM348.7,360l-43.7-43.6-107.3,107.3-14.9-14.9c-23,22-59.5,21.7-82.1-.9s-22.9-59.1-.9-82.1l-14.9-14.8,107.4-107.3-43.8-43.7-91.2,91.2c-55.2,55.1-55.2,144.9,0,200,55.2,55.1,144.9,55.1,200,0l91.4-91.2ZM520.7,509.3l100.2-100.3-98.6-98.6-100.3,100.3,98.7,98.6ZM613.1,387.1c18.1-19,17.8-49.2-.9-67.9-18.7-18.7-48.9-18.9-67.9-.9l68.8,68.8ZM371.3,360l43.7,43.6,107.4-107.3,14.9,14.9c23-22,59.5-21.7,82.1.9s22.9,59.1.9,82.1l14.9,14.9-107.5,107.3,43.7,43.7,91.2-91.2c55.2-55.1,55.2-144.9,0-200s-144.9-55.1-200.1,0l-91.2,91.1Z"/>
  </g>
</svg>