<?xml version="1.0" encoding="UTF-8"?>
<svg id="Layer_1" data-name="Layer 1" xmlns="http://www.w3.org/2000/svg" xmlns:xlink="http://www.w3.org/1999/xlink" version="1.1" viewBox="0 0 720 720">
  <defs>
    <style>
      .cls-1 {
        clip-path: url(#clippath);
      }

      .cls-2 {
        fill: none;
      }

      .cls-2, .cls-3 {
        stroke-width: 0px;
      }

      .cls-3 {
        fill: #000;
      }
    </style>
    <clipPath id="clippath">
      <rect class="cls-2" width="720" height="720"/>
    </clipPath>
  </defs>
  <g class="cls-1">
    <path class="cls-3" d="M439,621.6c0-.9-.1-1.9-.1-2.9,0-4.2.4-8.4,1.3-12.4l-5.4,5.4c-88.1,88.2-230.4,90-320.8,5.5l16.4-16.4c81.5,75.6,208.9,73.8,288.1-5.5l176.6-176.7c79.3-79.3,81.1-206.7,5.5-288.3l52.7-52.8-11.3-11.3-29.2,29.3c-93.3-87.4-239.8-86.5-332,2.8,0,.9.1,1.9.1,2.9,0,4.2-.4,8.4-1.3,12.4l5.4-5.4c88.1-88.2,230.4-90,320.8-5.5l-16.4,16.4c-81.5-75.6-208.9-73.7-288.2,5.6l-176.6,176.6c-79.3,79.3-81.1,206.7-5.5,288.3l-52.7,52.8,11.3,11.3,29.2-29.3c93.3,87.4,239.9,86.5,332.1-2.8ZM135.9,312.6l176.6-176.7c73-73,190.2-74.9,265.5-5.5l-36.8,36.8c2,1.8,3.9,3.6,5.8,5.5s3.7,3.9,5.5,5.8l36.8-36.8c69.3,75.3,67.5,192.6-5.5,265.6l-176.6,176.7c-73,73-190.2,74.9-265.5,5.5l36.8-36.8c-2-1.8-3.9-3.6-5.8-5.5-1.9-1.9-3.7-3.9-5.5-5.8l-36.8,36.8c-69.3-75.2-67.5-192.5,5.5-265.6ZM193.8,526.1c1.9,1.9,3.9,3.7,5.9,5.4l39.1-39.1c21.5,16.1,52.1,14.3,71.7-5.2l176.5-176.6c19.6-19.6,21.3-50.2,5.2-71.7l39.1-39.1c-1.7-2-3.5-4-5.4-5.9s-3.9-3.7-5.9-5.4l-39,39c-21.5-16.1-52.1-14.3-71.7,5.2l-176.6,176.7c-19.6,19.6-21.3,50.2-5.2,71.7l-39.1,39.1c1.7,2,3.5,4,5.4,5.9ZM479.9,303.5l-176.5,176.6c-15.6,15.6-39.9,17.3-57.4,5.1l239.1-239.2c12.2,17.6,10.5,41.9-5.2,57.5ZM239.8,416.5l176.5-176.6c15.6-15.6,39.9-17.3,57.4-5.1l-239,239.1c-12.2-17.5-10.5-41.8,5.1-57.4ZM363.4,540.2l176.6-176.7c50.6-50.7,50.6-133.1,0-183.8-50.6-50.7-133-50.7-183.7,0l-176.6,176.8c-50.6,50.7-50.6,133.1,0,183.8,50.7,50.6,133.1,50.6,183.7,0ZM186.8,363.5l176.6-176.7c46.7-46.8,122.8-46.8,169.5,0s46.7,122.9,0,169.6l-176.6,176.8c-46.7,46.8-122.8,46.8-169.5,0-46.8-46.8-46.8-122.9,0-169.7ZM94.9,277.2c-28.2,0-51-22.8-51-51s9.8-34.6,24.4-43.5l22.1,45.7,9-4.4-22.1-45.7c5.5-2,11.4-3.1,17.6-3.1,28.2,0,51,22.8,51,51s-22.8,51-51,51ZM169,106.2c-.2-1.6-.2-3.3-.2-4.9,0-28.2,22.8-51,51-51s51,22.8,51,51-22.8,51-51,51-42.5-15.3-48.8-36.3l49.8-9.8-1.9-9.8-49.9,9.8ZM63.9,173.6l93.5-20.2,12,21.4,8.7-4.9-60-107.3c6-3.5,9.1-10.5,7.8-17.4l-.6-3.1c-.3-1.7-1.6-3-3.2-3.5s-3.4,0-4.6,1.2l-24.3,24.3c-2,2-2,5.2,0,7.2s2.3,1.5,3.6,1.5,1.5-.2,2.3-.5l10.2-5.1,18.4,32.8-59.4,59.4-8.5-17.6c-1.4-2.8-4.1-4.8-7.2-5.3-3.1-.5-6.3.5-8.5,2.7l-21,20.8,7.1,7.1,20.8-20.6,12.9,27.1ZM132.6,109l19.7,35.3-70.1,15.1,50.4-50.4ZM624.8,442.7c28.2,0,51,22.8,51,51s-9.8,34.6-24.4,43.5l-22.1-45.7-9,4.4,22.1,45.7c-5.5,2-11.4,3.1-17.6,3.1-28.2,0-51-22.8-51-51s22.9-51,51-51ZM550.8,613.7c.2,1.6.2,3.3.2,4.9,0,28.2-22.8,51-51,51s-51-22.8-51-51,22.8-51,51-51,42.5,15.3,48.8,36.3l-49.8,9.8,1.9,9.8,49.9-9.8ZM689.8,552.8l-20.8,20.6-13.2-27.1-93.5,20.2-12-21.4-8.7,4.9,60,107.3c-6,3.5-9.1,10.5-7.8,17.4l.6,3.1c.3,1.7,1.6,3,3.2,3.5,1.6.5,3.4,0,4.6-1.2l24.3-24.3c2-2,2-5.2,0-7.2s-2.3-1.5-3.6-1.5-1.5.2-2.3.5l-10.2,5.1-18.2-32.7,59.4-59.4,8.5,17.6c1.4,2.8,4.1,4.8,7.2,5.3,3.1.5,6.3-.5,8.5-2.7l21-20.8-7-7.2ZM587.2,610.9l-19.7-35.3,70.1-15.1-50.4,50.4ZM274.8,74.7c-1.5-3-3.2-5.9-5.2-8.7C335.7,8.9,422.9-11.2,503.9,5.9l-3.8,9.4c-78.1-15.9-162,3.9-225.3,59.4ZM445,645.3c1.5,3,3.2,5.9,5.2,8.7-66.1,57.1-153.3,77.1-234.3,60.1l3.8-9.4c78,15.9,161.9-3.9,225.3-59.4Z"/>
  </g>
</svg>