<?xml version="1.0" encoding="UTF-8"?>
<svg id="Layer_1" data-name="Layer 1" xmlns="http://www.w3.org/2000/svg" xmlns:xlink="http://www.w3.org/1999/xlink" version="1.1" viewBox="0 0 720 720">
  <defs>
    <style>
      .cls-1 {
        clip-path: url(#clippath);
      }

      .cls-2 {
        fill: none;
      }

      .cls-2, .cls-3 {
        stroke-width: 0px;
      }

      .cls-3 {
        fill: #000;
      }
    </style>
    <clipPath id="clippath">
      <rect class="cls-2" width="720" height="720"/>
    </clipPath>
  </defs>
  <g class="cls-1">
    <path class="cls-3" d="M446.7,273.3c-1.9-1.9-3.9-3.7-5.9-5.4l90.3-90.3,11.3,11.3-90.3,90.3c-1.7-2-3.5-4-5.4-5.9ZM22,33.4C22,17.3,26.1,0,37.8,0h644.4c11.7,0,15.8,17.3,15.8,33.4s-4.2,33.4-15.9,33.4h-17.7l-51.7,51.7,66.2,66.2-11.3,11.3-129.2-129.2H181.6L52.4,196.1l-11.4-11.3,66.2-66.2-51.7-51.8h-17.7c-11.7,0-15.8-17.2-15.8-33.4ZM159,66.8h-80.9l40.4,40.4,40.5-40.4ZM641.9,66.8h-80.9l40.4,40.4,40.5-40.4ZM32,33.4c0,15.2,4.2,23.4,5.9,23.4h644.4c1.7,0,5.9-8.2,5.9-23.4s-4.3-23.4-6-23.4H37.8c-1.7,0-5.8,8.2-5.8,23.4ZM720,209.6v-62.6h-64.7l16,16h32.7v46.6h3v300.7h-3v46.7h-32.7l-16,16h64.7v-62.6h-3V209.6h3ZM166.9,95.7h386.1l71.3,71.3v386.1l-71.3,71.3H166.9l-71.3-71.3V166.9l71.3-71.2ZM155,155v410h410V155H155ZM48.7,557H16v-46.6h-3V209.6h3v-46.6h32.7l16-16H0v62.6h3v300.7H0v62.7h64.7l-16-16ZM279.2,452.1c-2-1.7-4-3.5-5.9-5.4s-3.7-3.9-5.4-5.9l-90.3,90.3,11.3,11.3,90.3-90.3ZM698,686.6c0,16.2-4.2,33.4-15.9,33.4H37.8c-11.7,0-15.8-17.3-15.8-33.4s4.2-33.4,15.9-33.4h17.7l51.7-51.7-66.2-66.2,11.3-11.3,129.3,129.3h356.7l129.3-129.3,11.3,11.3-66.2,66.2,51.7,51.7h17.7c11.7,0,15.8,17.2,15.8,33.4ZM561,653.2h80.9l-40.4-40.4-40.5,40.4ZM78.1,653.2h80.9l-40.4-40.4-40.5,40.4ZM688,686.6c0-15.2-4.2-23.4-5.9-23.4H37.8c-1.7,0-5.9,8.2-5.9,23.4s4.2,23.4,5.9,23.4h644.4c1.7,0,5.8-8.2,5.8-23.4ZM333.4,461.6c30.6,0,56.9-18.3,68.6-44.6-5,.9-10.1,1.4-15.4,1.4s-2.3,0-3.4-.1c-10.5,16.4-28.9,27.3-49.8,27.3-32.6,0-59-26.4-59-59s10.9-39.3,27.3-49.8c0-1.1-.1-2.3-.1-3.4,0-5.3.5-10.4,1.4-15.4-26.3,11.7-44.6,38-44.6,68.6s33.6,75,75,75ZM392.3,382.1c5.5-.6,10.8-2.2,15.6-4.5-4.1-34.2-31.3-61.4-65.5-65.5-2.3,4.8-3.9,10.1-4.5,15.6,29,2.2,52.2,25.4,54.4,54.4ZM311.5,333.4c0-41.4,33.6-75,75-75s75,33.6,75,75-33.6,75-75,75-75-33.6-75-75ZM327.5,333.4c0,32.6,26.4,59,59,59s59-26.4,59-59-26.4-59-59-59-59,26.4-59,59Z"/>
  </g>
</svg>