<svg width="88" height="88" viewBox="0 0 88 88" fill="none" xmlns="http://www.w3.org/2000/svg">
<g filter="url(#filter0_d_162_1950)">
<circle cx="40" cy="40" r="28" fill="white"/>
<circle cx="40" cy="40" r="7.25904" stroke="black"/>
<circle cx="40" cy="40" r="1.01205" fill="black"/>
<path d="M38.988 27.8554C38.988 27.2965 39.4411 26.8434 40 26.8434C40.559 26.8434 41.0121 27.2965 41.0121 27.8554V32.9157H38.988V27.8554Z" fill="black"/>
<path d="M41.012 52.1446C41.012 52.7035 40.5589 53.1566 40 53.1566C39.441 53.1566 38.9879 52.7035 38.9879 52.1446L38.9879 47.0843L41.012 47.0843L41.012 52.1446Z" fill="black"/>
<path d="M27.8554 41.0121C27.2965 41.0121 26.8434 40.5589 26.8434 40C26.8434 39.4411 27.2965 38.988 27.8554 38.988L32.9157 38.988L32.9157 41.0121L27.8554 41.0121Z" fill="black"/>
<path d="M52.1446 38.9879C52.7035 38.9879 53.1566 39.4411 53.1566 40C53.1566 40.5589 52.7035 41.012 52.1446 41.012L47.0843 41.012L47.0843 38.9879L52.1446 38.9879Z" fill="black"/>
</g>
<defs>
<filter id="filter0_d_162_1950" x="0" y="0" width="88" height="88" filterUnits="userSpaceOnUse" color-interpolation-filters="sRGB">
<feFlood flood-opacity="0" result="BackgroundImageFix"/>
<feColorMatrix in="SourceAlpha" type="matrix" values="0 0 0 0 0 0 0 0 0 0 0 0 0 0 0 0 0 0 127 0" result="hardAlpha"/>
<feOffset dx="4" dy="4"/>
<feGaussianBlur stdDeviation="8"/>
<feComposite in2="hardAlpha" operator="out"/>
<feColorMatrix type="matrix" values="0 0 0 0 0 0 0 0 0 0 0 0 0 0 0 0 0 0 0.59 0"/>
<feBlend mode="normal" in2="BackgroundImageFix" result="effect1_dropShadow_162_1950"/>
<feBlend mode="normal" in="SourceGraphic" in2="effect1_dropShadow_162_1950" result="shape"/>
</filter>
</defs>
</svg>
